<?xml version="1.0" standalone="no"?>
<!DOCTYPE svg PUBLIC "-//W3C//DTD SVG 20010904//EN"
 "http://www.w3.org/TR/2001/REC-SVG-20010904/DTD/svg10.dtd">
<svg version="1.0" xmlns="http://www.w3.org/2000/svg"
 width="600.000000pt" height="400.000000pt" viewBox="0 0 600.000000 400.000000"
 preserveAspectRatio="xMidYMid meet">

<g transform="translate(0.000000,400.000000) scale(0.100000,-0.100000)"
fill="#000000" stroke="none">
<path d="M2010 2675 l0 -985 995 0 995 0 0 985 0 985 -995 0 -995 0 0 -985z
m1133 869 c54 -8 56 -13 44 -103 -40 -308 -316 -596 -662 -692 -101 -27 -415
-41 -415 -18 1 39 41 202 64 259 107 262 338 465 609 535 95 25 256 33 360 19z
m231 -68 c332 -153 543 -494 522 -841 -21 -340 -216 -622 -530 -764 -38 -17
-70 -31 -72 -31 -2 0 -4 376 -4 835 0 459 3 835 6 835 3 0 38 -15 78 -34z
m-859 -874 c102 -29 152 -49 224 -88 204 -112 361 -296 425 -499 18 -57 36
-174 29 -192 -6 -16 -98 -28 -208 -26 -416 5 -788 318 -861 723 -22 125 -39
113 154 107 123 -4 186 -11 237 -25z"/>
<path d="M910 792 c0 -258 9 -319 52 -360 44 -41 88 -51 229 -53 l134 -1 3 51
3 51 -115 0 c-162 0 -185 15 -191 121 -3 46 -1 59 13 64 9 3 68 6 132 5 63 -1
121 -1 128 -1 8 1 12 18 12 51 l0 49 -142 3 -143 3 -3 54 c-6 105 -13 101 153
101 l145 0 0 50 0 50 -205 0 -205 0 0 -238z"/>
<path d="M1420 707 c0 -178 2 -326 4 -328 2 -2 27 -2 55 -1 l51 4 0 324 0 324
-55 0 -55 0 0 -323z"/>
<path d="M2690 776 c0 -156 4 -266 11 -283 24 -65 95 -113 166 -113 l38 0 -3
49 c-4 45 -6 50 -32 56 -54 12 -65 36 -68 156 l-4 109 49 0 c28 0 52 2 54 4 2
3 3 25 1 50 l-4 46 -49 0 -49 0 0 90 0 90 -55 0 -55 0 0 -254z"/>
<path d="M3912 704 l3 -327 50 0 50 0 3 327 2 326 -55 0 -55 0 2 -326z"/>
<path d="M1803 860 c-58 -12 -94 -33 -136 -79 -46 -51 -60 -100 -56 -194 5
-98 37 -148 123 -192 49 -25 70 -29 130 -29 75 0 146 26 182 65 17 18 16 20
-12 49 -16 16 -32 30 -36 30 -4 0 -24 -11 -44 -25 -82 -55 -208 -18 -229 67
l-7 28 188 2 189 3 3 28 c5 44 -26 134 -60 173 -56 64 -145 92 -235 74z m112
-104 c37 -16 70 -58 62 -79 -6 -17 -248 -18 -254 -1 -6 17 38 65 71 80 40 17
79 17 121 0z"/>
<path d="M2343 856 c-121 -39 -183 -125 -183 -251 0 -207 262 -316 433 -182
22 18 22 19 -14 56 l-30 32 -55 -27 c-81 -40 -143 -24 -198 50 -15 20 -21 43
-21 81 0 124 121 188 234 125 l43 -25 30 34 c29 32 29 33 11 53 -49 54 -170
80 -250 54z"/>
<path d="M3185 844 c-16 -8 -37 -22 -46 -30 -22 -20 -29 -18 -29 11 0 24 -3
25 -55 25 l-55 0 0 -233 c0 -129 2 -236 4 -238 2 -2 27 -2 55 -1 l51 4 0 129
c0 143 10 182 55 217 20 16 42 22 76 22 l49 0 0 55 0 55 -37 0 c-21 0 -51 -7
-68 -16z"/>
<path d="M3452 835 c-196 -100 -181 -378 25 -455 30 -11 71 -20 92 -20 165 0
294 147 263 298 -15 70 -56 130 -116 167 -43 26 -61 30 -130 33 -71 3 -87 0
-134 -23z m197 -93 c44 -24 71 -74 71 -133 0 -62 -32 -108 -92 -133 -42 -17
-52 -18 -90 -7 -90 27 -136 116 -102 200 33 82 133 116 213 73z"/>
<path d="M4114 836 c-3 -8 -4 -85 -2 -173 2 -131 6 -165 22 -196 40 -81 163
-124 267 -94 68 20 103 47 129 98 18 34 20 59 20 209 l0 170 -55 0 -55 0 0
-149 c0 -82 -4 -161 -10 -175 -23 -62 -120 -80 -169 -32 -25 26 -26 29 -31
189 l-5 162 -53 3 c-39 2 -54 -1 -58 -12z"/>
<path d="M4630 845 c0 -3 36 -53 80 -112 70 -93 79 -109 68 -124 -7 -10 -47
-65 -90 -123 -42 -57 -75 -106 -73 -108 2 -2 30 -2 62 0 l58 4 58 80 c33 44
62 76 66 72 5 -5 33 -43 63 -85 l56 -76 51 2 c29 2 54 5 57 8 3 3 -7 23 -23
44 -94 121 -144 195 -140 206 3 7 37 54 76 105 39 51 71 97 71 102 0 6 -26 10
-57 10 l-58 0 -45 -65 c-25 -35 -50 -64 -56 -65 -7 0 -33 29 -59 65 l-48 65
-59 0 c-32 0 -58 -2 -58 -5z"/>
</g>
</svg>
