<?xml version="1.0" standalone="no"?>
<!DOCTYPE svg PUBLIC "-//W3C//DTD SVG 20010904//EN"
 "http://www.w3.org/TR/2001/REC-SVG-20010904/DTD/svg10.dtd">
<svg version="1.0" xmlns="http://www.w3.org/2000/svg"
 width="3182.000000pt" height="485.000000pt" viewBox="0 0 3182.000000 485.000000"
 preserveAspectRatio="xMidYMid meet">

<g transform="translate(0.000000,485.000000) scale(0.100000,-0.100000)"
fill="#000000" stroke="none">
<path d="M6475 4840 c-710 -35 -1123 -162 -1394 -429 -244 -239 -368 -578
-411 -1116 -30 -378 -30 -1361 0 -1740 48 -607 205 -975 518 -1210 202 -151
485 -250 857 -299 415 -54 1101 -59 1547 -11 976 106 1375 512 1457 1480 28
331 35 1299 12 1655 -29 450 -88 719 -209 954 -227 442 -640 644 -1442 706
-186 14 -729 20 -935 10z m775 -1115 c270 -59 411 -229 465 -559 38 -232 44
-1100 10 -1401 -44 -391 -186 -579 -485 -642 -125 -26 -636 -26 -760 0 -286
61 -421 227 -475 582 -41 273 -41 1154 1 1445 54 376 213 542 559 589 115 16
596 6 685 -14z"/>
<path d="M11531 4839 c-335 -15 -645 -55 -821 -105 -47 -14 -125 -45 -175 -70
-381 -193 -566 -450 -646 -899 -21 -116 -24 -160 -24 -415 1 -229 4 -304 18
-380 85 -458 266 -695 654 -856 236 -98 511 -138 1283 -184 475 -29 592 -57
694 -171 68 -76 89 -153 84 -307 -3 -103 -7 -125 -32 -179 -52 -113 -151 -181
-311 -214 -184 -38 -660 -34 -819 7 -165 43 -273 145 -307 291 -6 26 -14 95
-18 153 l-6 105 -627 3 -628 2 0 -177 c0 -404 53 -685 166 -877 109 -186 305
-337 539 -415 555 -186 1905 -200 2510 -26 50 14 149 55 220 90 381 188 556
443 622 910 24 168 24 585 0 742 -46 294 -126 477 -282 642 -123 130 -267 227
-416 279 -246 86 -616 136 -1354 182 -182 11 -359 27 -394 35 -137 33 -229
105 -273 214 -20 49 -23 74 -23 196 0 122 3 146 21 186 85 184 288 249 734
236 207 -6 311 -23 407 -67 75 -35 145 -97 173 -155 27 -55 50 -168 51 -250
l1 -65 631 0 630 0 -6 198 c-12 392 -63 622 -181 822 -115 195 -318 346 -556
414 -310 88 -955 132 -1539 105z"/>
<path d="M0 4180 l0 -580 700 0 700 0 0 -1755 0 -1755 700 0 700 0 0 1755 0
1755 700 0 700 0 0 580 0 580 -2100 0 -2100 0 0 -580z"/>
<path d="M14810 2425 l0 -2335 660 0 660 0 0 900 0 900 765 0 765 0 0 -900 0
-900 660 0 660 0 0 2335 0 2335 -660 0 -660 0 0 -850 0 -850 -765 0 -765 0 -2
848 -3 847 -657 3 -658 2 0 -2335z"/>
<path d="M20140 2425 l0 -2335 665 0 665 0 0 2335 0 2335 -665 0 -665 0 0
-2335z"/>
<path d="M22650 2425 l0 -2335 1358 0 c1135 0 1379 3 1490 15 630 70 994 323
1127 782 45 155 58 261 58 473 -1 207 -16 342 -54 480 -90 323 -321 544 -686
657 -51 15 -93 30 -93 33 0 3 37 16 81 29 187 56 370 172 466 293 67 84 96
137 131 238 79 227 88 595 21 870 -99 402 -351 633 -804 738 -243 57 -205 56
-1707 59 l-1388 4 0 -2336z m2380 1249 c104 -31 173 -94 212 -194 29 -76 31
-243 4 -315 -29 -75 -72 -132 -129 -170 -96 -63 -116 -65 -659 -65 l-488 0 0
380 0 380 503 0 c430 0 511 -2 557 -16z m48 -1686 c157 -48 225 -135 245 -318
29 -265 -80 -450 -293 -499 -28 -7 -242 -11 -552 -11 l-508 0 0 426 0 425 528
-4 c443 -3 535 -6 580 -19z"/>
<path d="M28440 4755 c0 -3 -54 -184 -121 -402 -66 -219 -158 -522 -204 -673
-46 -151 -286 -945 -535 -1765 -544 -1795 -550 -1815 -550 -1820 0 -3 308 -5
684 -5 l684 0 11 33 c5 17 39 133 75 257 36 124 87 302 114 395 l50 170 771 3
771 2 5 -22 c3 -13 59 -205 124 -428 l117 -405 688 -3 c561 -2 687 0 683 11
-3 7 -69 224 -147 482 -78 259 -182 601 -230 760 -49 160 -161 531 -250 825
-89 294 -185 612 -214 705 -29 94 -169 556 -312 1027 l-259 858 -977 0 c-538
0 -978 -2 -978 -5z m1109 -1582 c149 -515 330 -1141 337 -1165 5 -17 -22 -18
-466 -18 l-472 0 7 28 c3 15 101 353 216 752 116 399 217 749 225 778 9 28 19
52 22 52 4 0 63 -192 131 -427z"/>
</g>
</svg>
