<?xml version="1.0" standalone="no"?>
<!DOCTYPE svg PUBLIC "-//W3C//DTD SVG 20010904//EN"
 "http://www.w3.org/TR/2001/REC-SVG-20010904/DTD/svg10.dtd">
<svg version="1.0" xmlns="http://www.w3.org/2000/svg"
 width="3200.000000pt" height="1600.000000pt" viewBox="0 0 3200.000000 1600.000000"
 preserveAspectRatio="xMidYMid meet">

<g transform="translate(0.000000,1600.000000) scale(0.100000,-0.100000)"
fill="#000000" stroke="none">
<path d="M25136 12769 c-700 -46 -1203 -334 -1497 -856 -100 -179 -187 -446
-224 -688 -34 -220 -29 -603 11 -915 80 -622 293 -918 1002 -1389 220 -147
335 -214 572 -334 231 -118 352 -193 445 -278 131 -120 228 -275 276 -439 30
-107 38 -388 15 -548 -36 -243 -110 -377 -246 -441 -50 -23 -66 -26 -170 -25
-95 0 -125 4 -172 23 -81 32 -152 98 -177 167 -20 52 -21 75 -21 519 l0 465
-766 0 -766 0 5 -412 c4 -325 8 -431 21 -498 56 -289 149 -507 306 -715 283
-374 708 -606 1250 -682 167 -23 524 -23 700 1 885 118 1425 593 1593 1401 45
217 52 294 52 600 -1 227 -5 315 -18 405 -88 567 -308 954 -722 1267 -87 66
-224 153 -492 312 -671 398 -977 649 -1106 906 -73 146 -100 283 -99 505 2
221 22 338 80 458 65 135 155 188 317 186 162 -3 272 -68 331 -197 l29 -62 5
-500 5 -500 768 -3 767 -2 0 419 c0 233 -5 454 -10 498 -88 663 -515 1118
-1203 1283 -259 62 -580 88 -861 69z"/>
<path d="M21003 12759 c-590 -42 -1036 -257 -1338 -644 -250 -322 -385 -757
-385 -1250 0 -614 96 -1046 292 -1310 75 -101 285 -308 413 -406 314 -241 611
-427 950 -596 181 -90 219 -112 326 -194 153 -116 268 -270 327 -439 42 -121
56 -241 49 -423 -12 -295 -61 -454 -173 -564 -43 -41 -68 -56 -120 -73 -78
-24 -165 -25 -252 -5 -119 28 -184 78 -231 175 l-26 55 -2 465 -1 465 -761 3
-761 2 0 -364 c0 -272 4 -395 15 -483 34 -259 116 -483 250 -688 69 -105 100
-144 198 -244 250 -255 566 -419 962 -500 433 -87 991 -46 1390 104 634 238
1001 744 1097 1515 19 156 16 581 -6 745 -44 327 -157 636 -314 863 -164 238
-351 402 -694 607 -691 413 -904 560 -1109 765 -170 170 -246 305 -285 505
-22 118 -23 403 -1 525 46 255 153 375 343 388 176 11 317 -69 375 -214 24
-59 24 -59 27 -551 l3 -493 770 0 771 0 -4 453 c-4 422 -6 459 -27 562 -99
479 -356 818 -780 1031 -211 105 -447 170 -736 203 -133 15 -413 20 -552 10z"/>
<path d="M2870 12075 l0 -545 1015 0 c558 0 1015 -2 1015 -5 0 -3 -77 -178
-171 -388 -217 -484 -167 -374 -402 -897 -157 -349 -485 -1080 -727 -1620
-144 -322 -290 -648 -325 -725 -70 -155 -193 -430 -321 -718 l-84 -187 0 -580
0 -580 1875 0 1875 0 0 580 0 580 -1035 0 c-569 0 -1035 2 -1035 5 0 2 96 222
214 487 118 266 321 724 451 1018 130 294 364 823 520 1175 156 352 404 910
552 1240 l268 600 2 553 2 552 -1844 0 -1845 0 0 -545z"/>
<path d="M7266 12528 c-4 -51 -22 -349 -41 -663 -19 -313 -37 -610 -40 -660
-3 -49 -8 -128 -11 -175 -2 -47 -7 -114 -9 -150 -7 -107 -14 -220 -20 -315 -3
-49 -7 -121 -10 -160 -3 -38 -7 -119 -10 -180 -3 -60 -7 -130 -10 -155 -2 -25
-7 -92 -10 -150 -3 -58 -12 -213 -20 -345 -9 -132 -22 -350 -30 -485 -8 -135
-17 -281 -20 -325 -3 -44 -14 -226 -25 -405 -27 -445 -29 -474 -40 -650 -6
-85 -15 -236 -20 -335 -6 -99 -12 -207 -15 -240 -5 -75 -12 -182 -25 -405 -5
-96 -12 -204 -15 -240 -2 -36 -7 -117 -10 -180 -3 -63 -8 -128 -10 -145 -2
-16 -7 -95 -10 -175 -4 -80 -8 -149 -9 -155 -1 -8 1353 -8 1362 0 2 2 17 153
33 337 17 183 32 342 34 354 4 20 9 21 370 22 283 1 367 -1 370 -11 3 -6 17
-167 33 -357 l27 -345 739 -3 c407 -1 743 1 747 5 4 5 4 44 -1 88 -5 44 -11
109 -14 145 -20 214 -200 2209 -276 3050 -49 547 -92 1015 -95 1040 -2 25 -52
574 -110 1220 -58 646 -108 1190 -111 1208 l-5 32 -1343 0 -1344 0 -6 -92z
m1409 -1963 c25 -280 52 -582 60 -670 9 -88 18 -185 20 -215 3 -30 14 -156 25
-280 11 -124 22 -250 25 -280 3 -30 32 -354 65 -720 32 -366 62 -689 65 -717
l6 -53 -291 0 -292 0 7 78 c3 42 8 102 10 132 6 72 30 377 55 720 11 151 22
295 25 320 2 25 7 79 10 120 6 85 42 571 50 670 3 36 9 128 15 205 5 77 14
194 20 260 13 158 17 213 34 445 31 409 40 514 42 505 2 -6 24 -239 49 -520z"/>
<path d="M10900 9225 l0 -3395 770 0 770 0 2 1268 3 1267 83 -280 c45 -154
214 -723 376 -1265 l293 -985 736 -3 737 -2 0 3395 0 3395 -755 0 -756 0 3
-1285 c2 -707 1 -1285 -2 -1285 -3 0 -47 136 -98 303 -51 166 -122 397 -158
512 -36 116 -167 536 -290 935 -124 399 -232 746 -240 773 l-16 47 -729 0
-729 0 0 -3395z"/>
<path d="M15173 9833 l3 -2788 21 -85 c150 -598 654 -1066 1325 -1230 327 -80
722 -87 1077 -19 778 150 1289 633 1370 1294 8 63 11 907 11 2853 l0 2762
-765 0 -764 0 -1 -2767 0 -2768 -26 -52 c-31 -65 -99 -125 -173 -155 -80 -32
-260 -32 -342 0 -76 30 -141 89 -170 154 l-24 53 -3 2768 -2 2767 -770 0 -770
0 3 -2787z"/>
<path d="M27610 9225 l0 -3395 760 0 760 0 0 3395 0 3395 -760 0 -760 0 0
-3395z"/>
<path d="M2870 3720 l0 -340 4375 0 4375 0 0 340 0 340 -4375 0 -4375 0 0
-340z"/>
<path d="M20380 3720 l0 -340 4375 0 4375 0 0 340 0 340 -4375 0 -4375 0 0
-340z"/>
</g>
</svg>
